<svg id="Layer_1" data-name="Layer 1" xmlns="http://www.w3.org/2000/svg" viewBox="0 0 523.94 428.98"><defs><style>.cls-1{fill:#fff;stroke:#ccc;}.cls-1,.cls-2,.cls-3,.cls-5{stroke-linecap:round;stroke-linejoin:round;}.cls-1,.cls-2,.cls-3,.cls-5,.cls-6,.cls-7{stroke-width:4px;}.cls-2,.cls-7{fill:#b18be8;}.cls-2,.cls-3,.cls-5,.cls-6,.cls-7{stroke:#404040;}.cls-3{fill:#b3e3ff;}.cls-4{fill:#404040;}.cls-5,.cls-6{fill:none;}.cls-6,.cls-7{stroke-miterlimit:10;}</style></defs><title>icons</title><path class="cls-1" d="M128.72,257.21h252"/><circle class="cls-1" cx="285.12" cy="257.21" r="21"/><circle class="cls-1" cx="382.12" cy="257.21" r="21"/><path class="cls-2" d="M330.16,34H434V84H330.16V34Z"/><path class="cls-3" d="M335.22,345.88H429v50h-93.8v-50Z"/><path class="cls-4" d="M367.82,376.88v-8.3l-3.6,8.3h-1.3l-3.6-8.3v8.3h-1.5v-10.6h2l3.7,8.7,3.8-8.7h2v10.6h-1.5Zm6.4-4.1,1.9-.3a0.65,0.65,0,0,0,.6-0.5,1.36,1.36,0,0,0-1.6-1.3,1.5,1.5,0,0,0-1.6,1.5l-1.4-.3a2.79,2.79,0,0,1,3-2.3c2.2,0,3,1.2,3,2.6v3.6c0,0.6.1,1,.1,1.2h-1.3c0-.2-0.1-0.5-0.1-1a2.57,2.57,0,0,1-2.3,1.2,2.21,2.21,0,0,1-2.4-2.2c-0.1-1.3.9-2,2.1-2.2h0Zm2.5,1v-0.3l-2.2.3a1,1,0,0,0-1,1.1,1.06,1.06,0,0,0,1.2,1A1.82,1.82,0,0,0,376.72,373.78Zm5,0.8a1.51,1.51,0,0,0,1.7,1.3,1,1,0,0,0,1.2-1,1,1,0,0,0-.9-0.9l-1.2-.3a2,2,0,0,1-1.8-2,2.54,2.54,0,0,1,2.6-2.3,2.46,2.46,0,0,1,2.7,1.9l-1.2.5a1.45,1.45,0,0,0-1.5-1.2,1.13,1.13,0,0,0-1.2,1,1,1,0,0,0,.8.9l1.2,0.3a2.22,2.22,0,0,1,2,2.1,2.4,2.4,0,0,1-2.6,2.2,2.66,2.66,0,0,1-2.9-2.1Zm8.8-4.9h1.6V371h-1.6v3.8a0.86,0.86,0,0,0,1,1,1.27,1.27,0,0,0,.6-0.1v1.2a7.72,7.72,0,0,1-1,.1,1.92,1.92,0,0,1-2-2.1v-4h-1.4v-1.3h0.4a1,1,0,0,0,1.1-1.1v-1.2h1.3v2.4h0Zm10.4,5.1a3.27,3.27,0,0,1-3.2,2.3,3.6,3.6,0,0,1-3.6-3.9,3.54,3.54,0,0,1,3.4-3.8c2.2,0,3.5,1.5,3.5,3.8v0.4h-5.4a2.16,2.16,0,0,0,2.2,2.2,1.82,1.82,0,0,0,2-1.5Zm-1.4-2.3a1.79,1.79,0,0,0-2-1.8,2,2,0,0,0-2,1.8h4Zm8-1.4h-0.6c-1.2,0-2,.6-2,2.2v3.6h-1.4v-7.2h1.4V371a2.27,2.27,0,0,1,2.2-1.4h0.5v1.5h-0.1Z"/><path class="cls-5" d="M382.12 129.71L382.12 106.21"/><path class="cls-5" d="M392.92 121.01L382.12 131.81 371.22 121.01"/><path class="cls-5" d="M382.12 325.08L382.12 301.58"/><path class="cls-5" d="M371.22 310.28L382.12 299.48 393.02 310.28"/><path class="cls-4" d="M355.9,65.32V54.41h6.63v1.4h-5.12v3.51h4.65v1.41h-4.65v4.58H355.9Z"/><path class="cls-4" d="M370.72,63.21a3.35,3.35,0,0,1-3.32,2.34,3.94,3.94,0,0,1-.18-7.86c2.28,0,3.55,1.57,3.55,3.88a3.24,3.24,0,0,1,0,.46h-5.57a2.2,2.2,0,0,0,2.23,2.25,2,2,0,0,0,2.08-1.49Zm-1.46-2.35a1.86,1.86,0,0,0-2-1.89,2,2,0,0,0-2,1.89h4Z"/><path class="cls-4" d="M375,61.09l2-.29a0.54,0.54,0,0,0,.57-0.55,1.35,1.35,0,0,0-1.6-1.32,1.57,1.57,0,0,0-1.68,1.49l-1.38-.32a2.85,2.85,0,0,1,3-2.4c2.21,0,3.08,1.26,3.08,2.71V64.1a7,7,0,0,0,.09,1.21h-1.42a5.48,5.48,0,0,1-.08-1,2.7,2.7,0,0,1-2.38,1.23A2.24,2.24,0,1,1,375,61.09Zm2.57,1.06V61.81l-2.26.34a1.11,1.11,0,0,0-1.08,1.11,1.12,1.12,0,0,0,1.2,1.08A1.94,1.94,0,0,0,377.55,62.15Z"/><path class="cls-4" d="M383.77,57.92h1.6v1.31h-1.6v3.84a0.88,0.88,0,0,0,1,1,3,3,0,0,0,.57-0.06v1.23a3.17,3.17,0,0,1-1,.14,1.92,1.92,0,0,1-2.06-2.11V59.22h-1.42V57.92h0.4a1,1,0,0,0,1.14-1.14v-1.2h1.32v2.34Z"/><path class="cls-4" d="M390.57,65.55a2.74,2.74,0,0,1-2.77-3V57.92h1.45v4.45a1.65,1.65,0,0,0,1.68,1.91,1.67,1.67,0,0,0,1.75-1.89V57.92h1.45v6a12.62,12.62,0,0,0,.08,1.37h-1.38a6.46,6.46,0,0,1-.06-0.89A2.41,2.41,0,0,1,390.57,65.55Z"/><path class="cls-4" d="M401.28,59.38a4.58,4.58,0,0,0-.63,0c-1.22,0-2,.65-2,2.28v3.71h-1.45v-7.4h1.42v1.29a2.32,2.32,0,0,1,2.21-1.42,2.68,2.68,0,0,1,.48,0v1.54Z"/><path class="cls-4" d="M409.77,63.21a3.35,3.35,0,0,1-3.32,2.34,3.94,3.94,0,0,1-.18-7.86c2.28,0,3.55,1.57,3.55,3.88a3.21,3.21,0,0,1,0,.46h-5.57a2.2,2.2,0,0,0,2.23,2.25,2,2,0,0,0,2.08-1.49Zm-1.46-2.35a1.86,1.86,0,0,0-2-1.89,2,2,0,0,0-2,1.89h4Z"/><path class="cls-6" d="M201.72,216.21a41.06,41.06,0,0,1-41,41h-32m73-41a41.06,41.06,0,0,1,41-41h22.4"/><circle class="cls-7" cx="286.12" cy="175.21" r="21"/><circle class="cls-7" cx="382.12" cy="175.21" r="21"/><path class="cls-6" d="M307.12 175.21L361.12 175.21"/><circle class="cls-1" cx="107.72" cy="257.21" r="21"/></svg>